
<?xml version="1.0" encoding="UTF-8" standalone="no"?>
<svg width="120" height="120" viewBox="0 0 120 120" fill="none" xmlns="http://www.w3.org/2000/svg">
  <!-- Background Circle -->
  <circle cx="60" cy="60" r="60" fill="#5865F2"/>
  
  <!-- Bot Face -->
  <rect x="30" y="35" width="60" height="50" rx="10" fill="white"/>
  
  <!-- Eyes -->
  <circle cx="45" cy="55" r="6" fill="#5865F2"/>
  <circle cx="75" cy="55" r="6" fill="#5865F2"/>
  
  <!-- Smile -->
  <path d="M45 70C45 70 52 80 60 80C68 80 75 70 75 70" stroke="#5865F2" stroke-width="4" stroke-linecap="round"/>
  
  <!-- Antenna -->
  <path d="M60 25L60 35" stroke="white" stroke-width="4" stroke-linecap="round"/>
  <circle cx="60" cy="22" r="4" fill="white"/>
  
  <!-- Circuit Lines -->
  <path d="M20 50L30 60M30 50L20 60" stroke="white" stroke-width="3" stroke-linecap="round"/>
  <path d="M100 50L90 60M90 50L100 60" stroke="white" stroke-width="3" stroke-linecap="round"/>
  <path d="M85 90L95 80" stroke="white" stroke-width="3" stroke-linecap="round"/>
  <path d="M35 90L25 80" stroke="white" stroke-width="3" stroke-linecap="round"/>
</svg>
