<?xml version="1.0" encoding="UTF-8" standalone="no"?>
<svg width="600" height="400" viewBox="0 0 600 400" fill="none" xmlns="http://www.w3.org/2000/svg">
  <path d="M50 150C77.6142 150 100 127.614 100 100C100 72.3858 77.6142 50 50 50C22.3858 50 0 72.3858 0 100C0 127.614 22.3858 150 50 150Z" fill="#ffffff" fill-opacity="0.1"/>
  <path d="M150 250C177.614 250 200 227.614 200 200C200 172.386 177.614 150 150 150C122.386 150 100 172.386 100 200C100 227.614 122.386 250 150 250Z" fill="#ffffff" fill-opacity="0.05"/>
  <path d="M250 350C277.614 350 300 327.614 300 300C300 272.386 277.614 250 250 250C222.386 250 200 272.386 200 300C200 327.614 222.386 350 250 350Z" fill="#ffffff" fill-opacity="0.1"/>
  <path d="M350 250C377.614 250 400 227.614 400 200C400 172.386 377.614 150 350 150C322.386 150 300 172.386 300 200C300 227.614 322.386 250 350 250Z" fill="#ffffff" fill-opacity="0.05"/>
  <path d="M450 150C477.614 150 500 127.614 500 100C500 72.3858 477.614 50 450 50C422.386 50 400 72.3858 400 100C400 127.614 422.386 150 450 150Z" fill="#ffffff" fill-opacity="0.1"/>
  <path d="M550 250C577.614 250 600 227.614 600 200C600 172.386 577.614 150 550 150C522.386 150 500 172.386 500 200C500 227.614 522.386 250 550 250Z" fill="#ffffff" fill-opacity="0.05"/>
  <path d="M550 50C577.614 50 600 27.6142 600 0C600 -27.6142 577.614 -50 550 -50C522.386 -50 500 -27.6142 500 0C500 27.6142 522.386 50 550 50Z" fill="#ffffff" fill-opacity="0.05"/>
  <path d="M50 350C77.6142 350 100 327.614 100 300C100 272.386 77.6142 250 50 250C22.3858 250 0 272.386 0 300C0 327.614 22.3858 350 50 350Z" fill="#ffffff" fill-opacity="0.05"/>
  <path d="M550 450C577.614 450 600 427.614 600 400C600 372.386 577.614 350 550 350C522.386 350 500 372.386 500 400C500 427.614 522.386 450 550 450Z" fill="#ffffff" fill-opacity="0.1"/>
  <path d="M350 450C377.614 450 400 427.614 400 400C400 372.386 377.614 350 350 350C322.386 350 300 372.386 300 400C300 427.614 322.386 450 350 450Z" fill="#ffffff" fill-opacity="0.05"/>
  <path d="M150 50C177.614 50 200 27.6142 200 0C200 -27.6142 177.614 -50 150 -50C122.386 -50 100 -27.6142 100 0C100 27.6142 122.386 50 150 50Z" fill="#ffffff" fill-opacity="0.1"/>
  <path d="M350 50C377.614 50 400 27.6142 400 0C400 -27.6142 377.614 -50 350 -50C322.386 -50 300 -27.6142 300 0C300 27.6142 322.386 50 350 50Z" fill="#ffffff" fill-opacity="0.05"/>
  <path d="M450 350C477.614 350 500 327.614 500 300C500 272.386 477.614 250 450 250C422.386 250 400 272.386 400 300C400 327.614 422.386 350 450 350Z" fill="#ffffff" fill-opacity="0.1"/>
  <path d="M150 450C177.614 450 200 427.614 200 400C200 372.386 177.614 350 150 350C122.386 350 100 372.386 100 400C100 427.614 122.386 450 150 450Z" fill="#ffffff" fill-opacity="0.1"/>
  <path d="M250 150C277.614 150 300 127.614 300 100C300 72.3858 277.614 50 250 50C222.386 50 200 72.3858 200 100C200 127.614 222.386 150 250 150Z" fill="#ffffff" fill-opacity="0.05"/>
</svg>